<svg xmlns="http://www.w3.org/2000/svg" viewBox="0 0 257.08 44.5"><title>espanol_black</title><path d="M50.77,16H48.56v8.89H45V.39h6.33c4.69,0,7.35,2.8,7.35,7.66,0,3.82-1.61,6.44-4.41,7.46l5.32,9.38H55.7Zm-2.21-3.36h2.73c2.49,0,3.78-1.61,3.78-4.52s-1.29-4.37-3.74-4.37H48.56Z" transform="translate(-0.05 0.02)" style="fill:#2b2b2b"/><path d="M74.64,19.11c-.32,3.92-2.73,6.16-6.72,6.16s-6.27-2.52-6.27-6.93V12.85C61.65,8.47,64.07,6,68,6s6.44,2.48,6.44,6.86V17H65.05v1.4c0,2.51,1.08,3.65,3,3.65,2.06,0,2.94-.91,3.25-2.91Zm-9.59-6.3v1.58h6V12.81c0-2.52-1.12-3.64-3-3.64S65.05,10.29,65.05,12.81Z" transform="translate(-0.05 0.02)" style="fill:#2b2b2b"/><path d="M76.81,19.22h3.36a2.85,2.85,0,0,0,2.7,3,2.57,2.57,0,0,0,.48,0c1.79,0,2.8-.87,2.8-2.31,0-3.71-9.06-2.45-9.06-8.75C77.09,8,79.43,6,83,6c3.92,0,6,2.45,6.12,5.88H85.84a2.55,2.55,0,0,0-2.26-2.81,2.81,2.81,0,0,0-.58,0c-1.61,0-2.59.8-2.59,2.1,0,3.5,9.1,2.13,9.1,8.75,0,3.25-2.31,5.42-6.13,5.42C79.22,25.34,76.84,22.61,76.81,19.22Z" transform="translate(-0.05 0.02)" style="fill:#2b2b2b"/><path d="M100.64,21.91V25.1H99.35c-3.68,0-5.85-2.35-5.85-6.16V9.52H90.91V6.44H93.5V2.07h3.36V6.44h3.43V9.52H96.86V19c0,2,.84,2.94,2.66,2.94Z" transform="translate(-0.05 0.02)" style="fill:#2b2b2b"/><path d="M115.38,12.64V24.89h-2.77l-.24-1.72a4.54,4.54,0,0,1-4.1,2.17,5.36,5.36,0,0,1-5.67-5,5,5,0,0,1,0-.67c0-3.78,2.63-5.71,6.69-5.71H112V12.64c0-2.17-.8-3.4-2.66-3.4a2.58,2.58,0,0,0-2.79,2.37.22.22,0,0,0,0,.08h-3.39c.17-3.53,2.55-5.7,6.26-5.7C113.35,6,115.38,8.4,115.38,12.64ZM112,16.87h-2.69c-2.07,0-3.26.95-3.26,2.77s1.09,2.69,2.94,2.69a2.79,2.79,0,0,0,3-2.57,2.29,2.29,0,0,0,0-.37Z" transform="translate(-0.05 0.02)" style="fill:#2b2b2b"/><path d="M131.79,6.44V24.89h-2.41L129,22.82a5,5,0,0,1-4.59,2.52c-3.18,0-5.18-2.27-5.18-7.31V6.44h3.4V17.85c0,3,.8,4.27,2.59,4.27s3.15-1.54,3.15-4.27V6.44Z" transform="translate(-0.05 0.02)" style="fill:#2b2b2b"/><path d="M145.3,6.3V9.66a5.66,5.66,0,0,0-2.3-.42c-2.31,0-3.78,1.51-3.78,4.27V24.89h-3.4V6.44h2.42l.38,2.14A5.88,5.88,0,0,1,145.3,6.3Z" transform="translate(-0.05 0.02)" style="fill:#2b2b2b"/><path d="M159.44,12.64V24.89h-2.76l-.25-1.72a4.5,4.5,0,0,1-4.09,2.17,5.35,5.35,0,0,1-5.67-5,4,4,0,0,1,0-.69c0-3.78,2.62-5.71,6.68-5.71h2.7V12.64c0-2.17-.81-3.4-2.66-3.4a2.58,2.58,0,0,0-2.79,2.35.34.34,0,0,0,0,.1h-3.4c.18-3.53,2.56-5.7,6.27-5.7C157.41,6,159.44,8.4,159.44,12.64Zm-3.39,4.23h-2.7c-2.06,0-3.25.95-3.25,2.77s1.08,2.69,2.94,2.69a2.81,2.81,0,0,0,3-2.59c0-.12,0-.23,0-.35Z" transform="translate(-0.05 0.02)" style="fill:#2b2b2b"/><path d="M176,13.3V24.89h-3.39V13.48c0-3-.81-4.27-2.59-4.27-1.93,0-3.15,1.54-3.15,4.27V24.89h-3.4V6.44h2.42l.35,2.07A5,5,0,0,1,170.85,6C174,6,176,8.26,176,13.3Z" transform="translate(-0.05 0.02)" style="fill:#2b2b2b"/><path d="M188.07,21.91V25.1h-1.29c-3.68,0-5.85-2.35-5.85-6.16V9.52h-2.59V6.44h2.59V2.07h3.36V6.44h3.43V9.52h-3.43V19c0,2,.84,2.94,2.66,2.94Z" transform="translate(-0.05 0.02)" style="fill:#2b2b2b"/><path d="M198.22,17.61v-10c0-5,2.73-7.63,7.18-7.63s7,2.63,7.14,7.46H209c-.14-2.84-1.4-4.06-3.64-4.06s-3.57,1.29-3.57,4.27v9.94c0,3,1.4,4.27,3.67,4.27s3.75-1.3,3.75-4.1V14.7h-3.89V11.55h7.35v6.23c-.07,4.8-2.83,7.49-7.24,7.49S198.22,22.58,198.22,17.61Z" transform="translate(-0.05 0.02)" style="fill:#2b2b2b"/><path d="M228.57,6.44V24.89h-2.42l-.35-2.07a5,5,0,0,1-4.58,2.52C218,25.34,216,23.07,216,18V6.44h3.39V17.85c0,3,.81,4.27,2.59,4.27s3.15-1.54,3.15-4.27V6.44Z" transform="translate(-0.05 0.02)" style="fill:#2b2b2b"/><path d="M242.08,6.3V9.66a5.56,5.56,0,0,0-2.28-.42c-2.31,0-3.78,1.51-3.78,4.27V24.89h-3.39V6.44H235l.39,2.14A5.15,5.15,0,0,1,240.15,6,5.27,5.27,0,0,1,242.08,6.3Z" transform="translate(-0.05 0.02)" style="fill:#2b2b2b"/><path d="M256.88,6.44V24.89h-2.41l-.35-2.07a5,5,0,0,1-4.59,2.52c-3.18,0-5.18-2.27-5.18-7.31V6.44h3.4V17.85c0,3,.8,4.27,2.59,4.27s3.15-1.54,3.15-4.27V6.44Z" transform="translate(-0.05 0.02)" style="fill:#2b2b2b"/><path d="M45.84,35.59a.5.5,0,0,1-.13.37.39.39,0,0,1-.33.15A.41.41,0,0,1,45,36a.63.63,0,0,1,0-.74.41.41,0,0,1,.34-.14.38.38,0,0,1,.33.14A.49.49,0,0,1,45.84,35.59Zm-.73,2.14h.62v6.75H45Z" transform="translate(-0.05 0.02)" style="fill:#2b2b2b"/><path d="M53.44,39.25a3.62,3.62,0,0,1-.92,2.26,2.75,2.75,0,0,1-2.07.79,2.62,2.62,0,0,1-1.6-.52,3.39,3.39,0,0,1-1.08-1.48,6,6,0,0,1-.38-2.19V36.9a5.8,5.8,0,0,1,.38-2.22,3.24,3.24,0,0,1,1.09-1.49,2.94,2.94,0,0,1,3.7.29,3.65,3.65,0,0,1,.88,2.25h-.69c-.18-1.6-.93-2.39-2.25-2.39a2,2,0,0,0-1.76.95,4.61,4.61,0,0,0-.66,2.64v1.14a4.61,4.61,0,0,0,.64,2.59,2,2,0,0,0,1.73,1,2.08,2.08,0,0,0,1.62-.6,3,3,0,0,0,.68-1.78Z" transform="translate(-0.05 0.02)" style="fill:#2b2b2b"/><path d="M54.58,38.58a4.48,4.48,0,0,1,.34-1.81,2.8,2.8,0,0,1,.95-1.25,2.46,2.46,0,0,1,3.36.53A4.14,4.14,0,0,1,60,38.64v.16a4.68,4.68,0,0,1-.33,1.81,2.85,2.85,0,0,1-1,1.25,2.45,2.45,0,0,1-3.35-.54,4.09,4.09,0,0,1-.75-2.58Zm.67.22a3.55,3.55,0,0,0,.56,2.05,1.76,1.76,0,0,0,2.42.52,1.61,1.61,0,0,0,.52-.52,3.67,3.67,0,0,0,.56-2.12v-.15a3.85,3.85,0,0,0-.26-1.46,2.24,2.24,0,0,0-.72-1,1.63,1.63,0,0,0-1.06-.37,1.71,1.71,0,0,0-1.45.81,3.58,3.58,0,0,0-.57,2.11Z" transform="translate(-0.05 0.02)" style="fill:#2b2b2b"/><path d="M62,35.2v1.2a2.74,2.74,0,0,1,.85-1A2,2,0,0,1,64,35.08a1.69,1.69,0,0,1,1.45.63,3.24,3.24,0,0,1,.48,1.89v4.57h-.67V37.59a2.42,2.42,0,0,0-.34-1.39,1.28,1.28,0,0,0-1.08-.46,1.56,1.56,0,0,0-1.1.45A2.67,2.67,0,0,0,62,37.4v4.77h-.67v-7Z" transform="translate(-0.05 0.02)" style="fill:#2b2b2b"/><path d="M67.26,38.58a4.48,4.48,0,0,1,.34-1.81,2.92,2.92,0,0,1,1-1.25,2.46,2.46,0,0,1,3.36.53,4.13,4.13,0,0,1,.74,2.59v.16a4.68,4.68,0,0,1-.33,1.81,2.85,2.85,0,0,1-1,1.25A2.43,2.43,0,0,1,68,41.32a4.09,4.09,0,0,1-.75-2.58Zm.67.22a3.55,3.55,0,0,0,.56,2.05,1.76,1.76,0,0,0,2.42.52,1.61,1.61,0,0,0,.52-.52A3.68,3.68,0,0,0,72,38.73v-.15a3.85,3.85,0,0,0-.26-1.46,2.24,2.24,0,0,0-.72-1,1.68,1.68,0,0,0-1-.39,1.71,1.71,0,0,0-1.45.81A3.58,3.58,0,0,0,68,38.65Z" transform="translate(-0.05 0.02)" style="fill:#2b2b2b"/><path d="M76.26,41.65a1.55,1.55,0,0,0,1.17-.46A1.63,1.63,0,0,0,77.94,40h.65a2.49,2.49,0,0,1-.35,1.16,2.32,2.32,0,0,1-3.18.79,2.24,2.24,0,0,1-.68-.62,4.25,4.25,0,0,1-.69-2.57v-.23a4.84,4.84,0,0,1,.31-1.8,2.71,2.71,0,0,1,.89-1.22,2.25,2.25,0,0,1,1.37-.43,2.15,2.15,0,0,1,1.64.68,2.64,2.64,0,0,1,.69,1.79h-.65a2.07,2.07,0,0,0-.51-1.32,1.54,1.54,0,0,0-1.17-.5,1.56,1.56,0,0,0-1.4.76,3.71,3.71,0,0,0-.5,2.11v.22a3.69,3.69,0,0,0,.5,2.08A1.59,1.59,0,0,0,76.26,41.65Z" transform="translate(-0.05 0.02)" style="fill:#2b2b2b"/><path d="M82.26,42.3a2.39,2.39,0,0,1-1.39-.44,2.84,2.84,0,0,1-1-1.22,4.21,4.21,0,0,1-.35-1.75v-.28a4.48,4.48,0,0,1,.34-1.81,2.93,2.93,0,0,1,.94-1.26,2.07,2.07,0,0,1,1.31-.46,2,2,0,0,1,1.74.86,3.9,3.9,0,0,1,.64,2.37v.43h-4.3v.15a3.24,3.24,0,0,0,.58,2,1.78,1.78,0,0,0,1.49.79,1.92,1.92,0,0,0,.94-.23,2.22,2.22,0,0,0,.8-.75l.42.37A2.39,2.39,0,0,1,82.26,42.3Zm-.12-6.57a1.55,1.55,0,0,0-1.27.64,3,3,0,0,0-.63,1.71h3.62V38a2.74,2.74,0,0,0-.5-1.64A1.45,1.45,0,0,0,82.14,35.73Z" transform="translate(-0.05 0.02)" style="fill:#2b2b2b"/><path d="M89.64,33.42V35.2h1.25v.63H89.64v4.65a1.65,1.65,0,0,0,.18.87.69.69,0,0,0,.61.28,3.33,3.33,0,0,0,.54-.07v.63a2,2,0,0,1-.72.11,1.1,1.1,0,0,1-1-.46A2.46,2.46,0,0,1,89,40.48V35.83H87.86V35.2H89V33.42Z" transform="translate(-0.05 0.02)" style="fill:#2b2b2b"/><path d="M91.8,38.58a4.68,4.68,0,0,1,.33-1.81,3,3,0,0,1,1-1.25,2.48,2.48,0,0,1,3.4.56,4.14,4.14,0,0,1,.75,2.59v.16a4.69,4.69,0,0,1-.34,1.81,2.8,2.8,0,0,1-1,1.25,2.45,2.45,0,0,1-3.35-.54,4.09,4.09,0,0,1-.75-2.58Zm.67.22A3.45,3.45,0,0,0,93,40.85a1.74,1.74,0,0,0,2.4.53,1.79,1.79,0,0,0,.53-.53,3.6,3.6,0,0,0,.56-2.12v-.15a4,4,0,0,0-.25-1.46,2.24,2.24,0,0,0-.72-1,1.69,1.69,0,0,0-1.06-.37,1.71,1.71,0,0,0-1.46.81,3.59,3.59,0,0,0-.56,2.11Z" transform="translate(-0.05 0.02)" style="fill:#2b2b2b"/><path d="M98.3,38.62A4.7,4.7,0,0,1,98.93,36a1.91,1.91,0,0,1,1.7-1,2,2,0,0,1,1.87,1.11V32.28h.66v9.89h-.63v-.93a2.07,2.07,0,0,1-1.89,1.06,1.9,1.9,0,0,1-1.68-1,4.62,4.62,0,0,1-.64-2.62Zm.67.14a3.93,3.93,0,0,0,.47,2.1,1.44,1.44,0,0,0,1.3.77,1.79,1.79,0,0,0,1.76-1.26V37.1a1.82,1.82,0,0,0-1.75-1.36,1.46,1.46,0,0,0-1.31.77A4.37,4.37,0,0,0,99,38.76Z" transform="translate(-0.05 0.02)" style="fill:#2b2b2b"/><path d="M104.55,38.58a4.48,4.48,0,0,1,.34-1.81,2.92,2.92,0,0,1,1-1.25,2.48,2.48,0,0,1,3.4.56,4.14,4.14,0,0,1,.75,2.59v.16a4.48,4.48,0,0,1-.34,1.81,2.8,2.8,0,0,1-1,1.25,2.45,2.45,0,0,1-3.35-.54,4.09,4.09,0,0,1-.75-2.58Zm.67.22a3.55,3.55,0,0,0,.56,2.05,1.74,1.74,0,0,0,2.4.53,1.79,1.79,0,0,0,.53-.53,3.54,3.54,0,0,0,.57-2.12v-.15a3.85,3.85,0,0,0-.26-1.46,2.24,2.24,0,0,0-.72-1,1.63,1.63,0,0,0-1.06-.37,1.71,1.71,0,0,0-1.46.81,3.66,3.66,0,0,0-.56,2.11Z" transform="translate(-0.05 0.02)" style="fill:#2b2b2b"/><path d="M114.94,40.4a1.19,1.19,0,0,0-.4-.92,3,3,0,0,0-1.21-.55,4.61,4.61,0,0,1-1.24-.45,1.62,1.62,0,0,1-.88-1.51,1.76,1.76,0,0,1,.6-1.36,2.14,2.14,0,0,1,1.53-.53,2.3,2.3,0,0,1,1.62.57,2,2,0,0,1,.61,1.5h-.67a1.35,1.35,0,0,0-.44-1,1.6,1.6,0,0,0-1.12-.41,1.57,1.57,0,0,0-1.06.34,1.11,1.11,0,0,0-.4.88,1,1,0,0,0,.33.81,3.39,3.39,0,0,0,1.22.52,5.09,5.09,0,0,1,1.31.51,1.72,1.72,0,0,1,.87,1.57,1.77,1.77,0,0,1-.62,1.41,2.36,2.36,0,0,1-1.61.53,2.5,2.5,0,0,1-1.71-.59,1.92,1.92,0,0,1-.66-1.49h.67a1.41,1.41,0,0,0,.5,1.05,1.8,1.8,0,0,0,1.2.38,1.7,1.7,0,0,0,1.13-.36A1.1,1.1,0,0,0,114.94,40.4Z" transform="translate(-0.05 0.02)" style="fill:#2b2b2b"/><path d="M120.63,42.17H120V32.28h.67Z" transform="translate(-0.05 0.02)" style="fill:#2b2b2b"/><path d="M122.08,38.58a4.48,4.48,0,0,1,.34-1.81,2.92,2.92,0,0,1,1-1.25,2.48,2.48,0,0,1,3.4.56,4.14,4.14,0,0,1,.75,2.59v.16a4.48,4.48,0,0,1-.34,1.81,2.8,2.8,0,0,1-1,1.25,2.45,2.45,0,0,1-3.35-.54,4.09,4.09,0,0,1-.75-2.58Zm.67.22a3.55,3.55,0,0,0,.56,2.05,1.71,1.71,0,0,0,1.47.8,1.75,1.75,0,0,0,1.47-.8,3.67,3.67,0,0,0,.56-2.12v-.15a3.85,3.85,0,0,0-.26-1.46,2.24,2.24,0,0,0-.72-1,1.63,1.63,0,0,0-1.06-.37,1.71,1.71,0,0,0-1.46.81,3.66,3.66,0,0,0-.56,2.11Z" transform="translate(-0.05 0.02)" style="fill:#2b2b2b"/><path d="M132.47,40.4a1.19,1.19,0,0,0-.4-.92,3,3,0,0,0-1.21-.55,4.61,4.61,0,0,1-1.24-.45,1.62,1.62,0,0,1-.88-1.51,1.76,1.76,0,0,1,.6-1.36,2.14,2.14,0,0,1,1.53-.53,2.3,2.3,0,0,1,1.62.57,2,2,0,0,1,.61,1.5h-.67a1.35,1.35,0,0,0-.44-1,1.6,1.6,0,0,0-1.12-.41,1.57,1.57,0,0,0-1.06.34,1.11,1.11,0,0,0-.4.88,1,1,0,0,0,.33.81,3.39,3.39,0,0,0,1.22.52,5.09,5.09,0,0,1,1.31.51,1.68,1.68,0,0,1,.86,1.57,1.76,1.76,0,0,1-.61,1.41,2.36,2.36,0,0,1-1.61.53,2.43,2.43,0,0,1-1.71-.59,1.92,1.92,0,0,1-.66-1.49h.67a1.41,1.41,0,0,0,.5,1.05,1.8,1.8,0,0,0,1.2.38A1.7,1.7,0,0,0,132,41.3,1.1,1.1,0,0,0,132.47,40.4Z" transform="translate(-0.05 0.02)" style="fill:#2b2b2b"/><path d="M140.21,35.86a1.77,1.77,0,0,0-.46,0,1.46,1.46,0,0,0-1.05.4,2.3,2.3,0,0,0-.62,1.17v4.78h-.66v-7h.65v1.11a1.77,1.77,0,0,1,1.7-1.23,1,1,0,0,1,.44.08Z" transform="translate(-0.05 0.02)" style="fill:#2b2b2b"/><path d="M143.6,42.3a2.39,2.39,0,0,1-1.39-.44,2.84,2.84,0,0,1-1-1.22,4.21,4.21,0,0,1-.35-1.75v-.28a4.48,4.48,0,0,1,.34-1.81,3,3,0,0,1,.94-1.26,2.07,2.07,0,0,1,1.31-.46,2,2,0,0,1,1.74.86,3.91,3.91,0,0,1,.65,2.37v.43h-4.31v.15a3.12,3.12,0,0,0,.59,2,1.76,1.76,0,0,0,1.48.79,1.92,1.92,0,0,0,.94-.23,2.24,2.24,0,0,0,.75-.72l.42.37A2.36,2.36,0,0,1,143.6,42.3Zm-.12-6.57a1.55,1.55,0,0,0-1.27.64,3,3,0,0,0-.63,1.71h3.62V38a2.74,2.74,0,0,0-.5-1.64,1.45,1.45,0,0,0-1.22-.63Z" transform="translate(-0.05 0.02)" style="fill:#2b2b2b"/><path d="M150.78,40.4a1.16,1.16,0,0,0-.4-.92,2.93,2.93,0,0,0-1.2-.55,4.56,4.56,0,0,1-1.25-.45,1.79,1.79,0,0,1-.66-.62,1.89,1.89,0,0,1,.39-2.25,2.14,2.14,0,0,1,1.53-.53,2.3,2.3,0,0,1,1.62.57,2,2,0,0,1,.61,1.5h-.67a1.32,1.32,0,0,0-.45-1,1.76,1.76,0,0,0-2.17-.07,1.11,1.11,0,0,0-.4.88,1,1,0,0,0,.33.81,3.34,3.34,0,0,0,1.21.52,5.16,5.16,0,0,1,1.32.51,1.68,1.68,0,0,1,.86,1.57,1.76,1.76,0,0,1-.61,1.41,2.76,2.76,0,0,1-3.33-.06,1.93,1.93,0,0,1-.65-1.49h.67a1.38,1.38,0,0,0,.49,1.05,1.88,1.88,0,0,0,1.21.38,1.69,1.69,0,0,0,1.12-.36A1.09,1.09,0,0,0,150.78,40.4Z" transform="translate(-0.05 0.02)" style="fill:#2b2b2b"/><path d="M154,33.42V35.2h1.25v.63H154v4.65a1.65,1.65,0,0,0,.18.87.69.69,0,0,0,.61.28,3.33,3.33,0,0,0,.54-.07v.63a2,2,0,0,1-.72.11,1.12,1.12,0,0,1-1-.46,2.48,2.48,0,0,1-.31-1.36V35.83h-1.11V35.2h1.11V33.42Z" transform="translate(-0.05 0.02)" style="fill:#2b2b2b"/><path d="M160.44,42.17a3.76,3.76,0,0,1-.13-1,2.51,2.51,0,0,1-2.05,1.1,1.86,1.86,0,0,1-1.41-.56,2.13,2.13,0,0,1,.2-3,3.25,3.25,0,0,1,2-.59h1.21v-.79a1.7,1.7,0,0,0-.4-1.18,1.51,1.51,0,0,0-1.16-.42,1.63,1.63,0,0,0-1.15.41,1.25,1.25,0,0,0-.46,1h-.67a1.89,1.89,0,0,1,.67-1.44,2.36,2.36,0,0,1,1.64-.6,2.15,2.15,0,0,1,1.6.58,2.25,2.25,0,0,1,.6,1.62v3.3a4.81,4.81,0,0,0,.18,1.51v.08Zm-2.1-.55a2,2,0,0,0,1.2-.38,2.15,2.15,0,0,0,.76-1V38.71h-1.19a2.68,2.68,0,0,0-1.56.42,1.45,1.45,0,0,0-.19,2.13A1.32,1.32,0,0,0,158.34,41.62Z" transform="translate(-0.05 0.02)" style="fill:#2b2b2b"/><path d="M166.63,41.29a2.07,2.07,0,0,1-1.92,1,1.73,1.73,0,0,1-1.47-.65,3,3,0,0,1-.51-1.91V35.2h.66v4.44c0,1.33.47,2,1.4,2a1.73,1.73,0,0,0,1.83-1.39v-5h.67v7h-.65Z" transform="translate(-0.05 0.02)" style="fill:#2b2b2b"/><path d="M171.82,35.86a1.77,1.77,0,0,0-.46,0,1.46,1.46,0,0,0-1.05.4,2.3,2.3,0,0,0-.62,1.17v4.78H169v-7h.65v1.11a1.77,1.77,0,0,1,1.7-1.23,1,1,0,0,1,.44.08Z" transform="translate(-0.05 0.02)" style="fill:#2b2b2b"/><path d="M176.46,42.17a3.76,3.76,0,0,1-.13-1,2.39,2.39,0,0,1-.89.81,2.49,2.49,0,0,1-1.16.29,1.86,1.86,0,0,1-1.41-.56,2.15,2.15,0,0,1,.2-3,3.26,3.26,0,0,1,2.05-.59h1.21V37.3a1.7,1.7,0,0,0-.4-1.18,1.53,1.53,0,0,0-1.17-.42,1.63,1.63,0,0,0-1.15.41,1.25,1.25,0,0,0-.46,1h-.67a1.89,1.89,0,0,1,.67-1.44,2.37,2.37,0,0,1,1.65-.6,2.17,2.17,0,0,1,1.59.58,2.25,2.25,0,0,1,.6,1.62v3.3a4.81,4.81,0,0,0,.18,1.51v.08Zm-2.1-.55a2,2,0,0,0,1.2-.38,2.17,2.17,0,0,0,.77-1V38.71h-1.2a2.78,2.78,0,0,0-1.56.42,1.3,1.3,0,0,0-.56,1.13,1.33,1.33,0,0,0,.37,1A1.32,1.32,0,0,0,174.36,41.62Z" transform="translate(-0.05 0.02)" style="fill:#2b2b2b"/><path d="M179.41,35.2v1.2a2.74,2.74,0,0,1,.85-1,2,2,0,0,1,1.12-.33,1.69,1.69,0,0,1,1.45.63,3.24,3.24,0,0,1,.48,1.89v4.57h-.67V37.59a2.42,2.42,0,0,0-.34-1.39,1.28,1.28,0,0,0-1.08-.46,1.56,1.56,0,0,0-1.1.45,2.6,2.6,0,0,0-.7,1.21v4.77h-.67v-7Z" transform="translate(-0.05 0.02)" style="fill:#2b2b2b"/><path d="M186.09,33.42V35.2h1.25v.63h-1.25v4.65a1.65,1.65,0,0,0,.18.87.69.69,0,0,0,.61.28,3.33,3.33,0,0,0,.54-.07v.63a1.92,1.92,0,0,1-.71.11,1.12,1.12,0,0,1-1-.46,2.48,2.48,0,0,1-.31-1.36V35.83h-1.11V35.2h1.11V33.42Z" transform="translate(-0.05 0.02)" style="fill:#2b2b2b"/><path d="M191.06,42.3a2.39,2.39,0,0,1-1.39-.44,2.84,2.84,0,0,1-1-1.22,4.21,4.21,0,0,1-.35-1.75v-.28a4.69,4.69,0,0,1,.34-1.81,3,3,0,0,1,.94-1.26,2.07,2.07,0,0,1,1.31-.46,2,2,0,0,1,1.74.86,3.91,3.91,0,0,1,.65,2.37v.43H189v.15a3.12,3.12,0,0,0,.59,2,1.76,1.76,0,0,0,1.48.79,1.82,1.82,0,0,0,.94-.23,2.07,2.07,0,0,0,.75-.72l.42.37A2.38,2.38,0,0,1,191.06,42.3Zm-.12-6.57a1.56,1.56,0,0,0-1.27.64,3,3,0,0,0-.63,1.71h3.62V38a2.82,2.82,0,0,0-.49-1.64A1.47,1.47,0,0,0,190.94,35.73Z" transform="translate(-0.05 0.02)" style="fill:#2b2b2b"/><path d="M198.24,40.4a1.16,1.16,0,0,0-.4-.92,2.93,2.93,0,0,0-1.2-.55,5,5,0,0,1-1.25-.45,1.68,1.68,0,0,1-.65-.62,1.64,1.64,0,0,1-.22-.89,1.76,1.76,0,0,1,.6-1.36,2.14,2.14,0,0,1,1.53-.53,2.3,2.3,0,0,1,1.62.57,2,2,0,0,1,.61,1.5h-.67a1.35,1.35,0,0,0-.44-1,1.6,1.6,0,0,0-1.12-.41,1.57,1.57,0,0,0-1.06.34,1.11,1.11,0,0,0-.4.88,1,1,0,0,0,.33.81,3.34,3.34,0,0,0,1.21.52,5.16,5.16,0,0,1,1.32.51,1.68,1.68,0,0,1,.86,1.57,1.76,1.76,0,0,1-.61,1.41,2.48,2.48,0,0,1-1.61.53,2.43,2.43,0,0,1-1.71-.59,1.92,1.92,0,0,1-.66-1.49H195a1.41,1.41,0,0,0,.49,1.05,1.88,1.88,0,0,0,1.21.38,1.69,1.69,0,0,0,1.12-.36A1.08,1.08,0,0,0,198.24,40.4Z" transform="translate(-0.05 0.02)" style="fill:#2b2b2b"/><path d="M202.93,38.62a4.66,4.66,0,0,1,.62-2.58,2,2,0,0,1,3.57.11V32.28h.67v9.89h-.63v-.93a2,2,0,0,1-1.88,1.06,2,2,0,0,1-1.69-1,4.7,4.7,0,0,1-.63-2.62Zm.67.14a4.14,4.14,0,0,0,.46,2.1,1.46,1.46,0,0,0,1.31.77,1.79,1.79,0,0,0,1.75-1.26V37.1a1.8,1.8,0,0,0-1.74-1.36,1.46,1.46,0,0,0-1.31.77,4.37,4.37,0,0,0-.47,2.25Z" transform="translate(-0.05 0.02)" style="fill:#2b2b2b"/><path d="M211.88,42.3a2.39,2.39,0,0,1-1.39-.44,2.9,2.9,0,0,1-1-1.22,4.37,4.37,0,0,1-.34-1.75v-.28a4.68,4.68,0,0,1,.33-1.81,3,3,0,0,1,.94-1.26,2.07,2.07,0,0,1,1.31-.46,2,2,0,0,1,1.74.86,3.91,3.91,0,0,1,.65,2.37v.43h-4.31v.15a3.25,3.25,0,0,0,.59,2,1.77,1.77,0,0,0,1.48.79,2,2,0,0,0,1-.23,2.21,2.21,0,0,0,.74-.72l.42.37A2.34,2.34,0,0,1,211.88,42.3Zm-.12-6.57a1.59,1.59,0,0,0-1.27.64,3.22,3.22,0,0,0-.63,1.71h3.63V38a2.81,2.81,0,0,0-.5-1.64,1.47,1.47,0,0,0-1.23-.63Z" transform="translate(-0.05 0.02)" style="fill:#2b2b2b"/><path d="M216.2,42.17h-.67V32.28h.67Z" transform="translate(-0.05 0.02)" style="fill:#2b2b2b"/><path d="M221.4,35.2v1.14a2.34,2.34,0,0,1,.84-1,2,2,0,0,1,1.11-.31,1.72,1.72,0,0,1,1.82,1.35,2.32,2.32,0,0,1,.86-1,2.05,2.05,0,0,1,1.2-.35c1.29,0,2,.81,2,2.44v4.65h-.67V37.58a2.23,2.23,0,0,0-.35-1.38,1.3,1.3,0,0,0-1.12-.46,1.64,1.64,0,0,0-1.21.54,2.05,2.05,0,0,0-.56,1.28v4.61h-.67V37.52a2,2,0,0,0-.36-1.33,1.34,1.34,0,0,0-1.11-.45,1.5,1.5,0,0,0-1.08.42,2.45,2.45,0,0,0-.67,1.23v4.78h-.67v-7Z" transform="translate(-0.05 0.02)" style="fill:#2b2b2b"/><path d="M234.8,41.29a2.07,2.07,0,0,1-1.92,1,1.77,1.77,0,0,1-1.47-.65,3.17,3.17,0,0,1-.51-1.91V35.2h.66v4.44c0,1.33.47,2,1.4,2a1.72,1.72,0,0,0,1.83-1.39v-5h.67v7h-.64Z" transform="translate(-0.05 0.02)" style="fill:#2b2b2b"/><path d="M237.84,35.2v1.2a2.65,2.65,0,0,1,.85-1,2,2,0,0,1,1.12-.33,1.68,1.68,0,0,1,1.44.63,3.07,3.07,0,0,1,.48,1.89v4.57h-.66V37.59a2.42,2.42,0,0,0-.34-1.39,1.28,1.28,0,0,0-1.08-.46,1.56,1.56,0,0,0-1.1.45,2.7,2.7,0,0,0-.71,1.21v4.77h-.66v-7Z" transform="translate(-0.05 0.02)" style="fill:#2b2b2b"/><path d="M243.21,38.62a4.59,4.59,0,0,1,.63-2.58,1.93,1.93,0,0,1,1.7-1,2,2,0,0,1,1.87,1.11V32.28h.66v9.89h-.62v-.93a2.07,2.07,0,0,1-1.89,1.06,1.93,1.93,0,0,1-1.68-1,4.62,4.62,0,0,1-.64-2.62Zm.67.14a3.93,3.93,0,0,0,.47,2.1,1.44,1.44,0,0,0,1.3.77,1.79,1.79,0,0,0,1.76-1.26V37.1a1.83,1.83,0,0,0-1.74-1.36,1.47,1.47,0,0,0-1.32.77A4.37,4.37,0,0,0,243.88,38.76Z" transform="translate(-0.05 0.02)" style="fill:#2b2b2b"/><path d="M249.46,38.58a4.48,4.48,0,0,1,.34-1.81,2.8,2.8,0,0,1,.95-1.25,2.44,2.44,0,0,1,3.35.53,4.14,4.14,0,0,1,.75,2.59v.16a4.48,4.48,0,0,1-.34,1.81,2.8,2.8,0,0,1-.95,1.25,2.45,2.45,0,0,1-3.35-.54,4.09,4.09,0,0,1-.75-2.58Zm.67.22a3.55,3.55,0,0,0,.56,2.05,1.76,1.76,0,0,0,2.42.52,1.61,1.61,0,0,0,.52-.52,3.67,3.67,0,0,0,.56-2.12v-.15a3.85,3.85,0,0,0-.26-1.46,2.24,2.24,0,0,0-.72-1,1.63,1.63,0,0,0-1.06-.37,1.73,1.73,0,0,0-1.46.81,3.66,3.66,0,0,0-.56,2.11Z" transform="translate(-0.05 0.02)" style="fill:#2b2b2b"/><path d="M256.21,41.72a.53.53,0,0,1,.13-.38.39.39,0,0,1,.33-.15.43.43,0,0,1,.34.15.64.64,0,0,1,.12.38.58.58,0,0,1-.12.36.48.48,0,0,1-.34.14.44.44,0,0,1-.33-.14A.53.53,0,0,1,256.21,41.72Zm.73-2.16h-.62V32.8H257Z" transform="translate(-0.05 0.02)" style="fill:#2b2b2b"/><path d="M20.19,7.92V4.12l.75,1.08,3.3,4.72.43.63a.88.88,0,0,0,1.07.32L30.4,9.24c1.68-.6,3.36-1.18,5-1.79A4.18,4.18,0,0,1,37,7.1a2.9,2.9,0,0,1,2.24,1.13,3.12,3.12,0,0,1,.68,1.95,3.44,3.44,0,0,1-.83,2.27c-.57.71-1.1,1.46-1.66,2.19l-1.85,2.43L33,20.49a2.8,2.8,0,0,0-.25.35A1,1,0,0,0,33,21.93c.36.47.71.95,1.08,1.42l1.81,2.33c.51.65,1,1.31,1.51,2L39,29.78a5,5,0,0,1,.91,1.51c0,.24.05.48.09.71v.2a0,0,0,0,0,0,.07,3,3,0,0,1-.48,1.56,2.87,2.87,0,0,1-3.28,1.39,25.27,25.27,0,0,1-2.58-.88c-1.81-.64-3.63-1.26-5.45-1.89L26,31.7a1.07,1.07,0,0,0-1.29.25,7.23,7.23,0,0,0-.6.85c-.67,1-1.35,1.91-2,2.87L19,40.32a4.13,4.13,0,0,1-1.18,1.35,5.53,5.53,0,0,1-1.1.45H15.6a5.13,5.13,0,0,1-1-.41,3,3,0,0,1-1.33-2,4.24,4.24,0,0,1-.11-.94V17.15a6.19,6.19,0,0,1,.62-2.93,3.52,3.52,0,0,1,1.85-1.79,1.49,1.49,0,0,0,.77-.93,4.63,4.63,0,0,0,.27-1.38c.1-2.89,0-5.79,0-8.68a1.08,1.08,0,0,1,.61-1h.66c.26.14.55.26.63.6a1,1,0,0,1,0,.24v8.94a5.31,5.31,0,0,1-.85,3,3.46,3.46,0,0,1-1.3,1.13A2.6,2.6,0,0,0,15.14,16,4.77,4.77,0,0,0,15,17.36V38.85A1.22,1.22,0,0,0,16.31,40l.23,0a1.64,1.64,0,0,0,.67-.66c.21-.29.39-.6.58-.91l1.12-1.61,3.54-5.2A5,5,0,0,1,24,29.82a3.16,3.16,0,0,1,2.19-.36,25.64,25.64,0,0,1,2.56.86l5.14,1.79c1,.32,1.89.67,2.85,1a.78.78,0,0,0,.88-.27.91.91,0,0,0,.24-1,3.44,3.44,0,0,0-.69-1c-1-1.35-2.07-2.69-3.1-4-.82-1.06-1.62-2.15-2.46-3.2a3.52,3.52,0,0,1-1-2.84A2.83,2.83,0,0,1,31,19.6c.53-.8,1.15-1.54,1.72-2.31.79-1.07,1.59-2.12,2.38-3.17l2.48-3.25a.89.89,0,0,0,.2-.56,1,1,0,0,0-.93-1.06,1,1,0,0,0-.42.06c-1,.34-2,.71-2.93,1-2.18.77-4.36,1.52-6.52,2.31a4.18,4.18,0,0,1-2.29.3A2.75,2.75,0,0,1,23,12c-.81-1.1-1.57-2.25-2.36-3.37A3.34,3.34,0,0,0,20.19,7.92Z" transform="translate(-0.05 0.02)" style="fill:#2d3132"/><path d="M7.27.39a1.08,1.08,0,0,1,.57,1.09V10a4.14,4.14,0,0,0,.39,1.8,1.6,1.6,0,0,0,.82.78A3.66,3.66,0,0,1,10.61,14a5.53,5.53,0,0,1,.78,2.29,9.11,9.11,0,0,1,0,1.28V41a.9.9,0,0,1-.85.9,1,1,0,0,1-.92-.64,1,1,0,0,1,0-.25V17.1A3.76,3.76,0,0,0,9,14.94a2,2,0,0,0-.74-.66,3.72,3.72,0,0,1-2-2.59A7.11,7.11,0,0,1,6,10.24C5.94,7.82,6,5.39,6,3V1.57A1.17,1.17,0,0,1,6.61.39Z" transform="translate(-0.05 0.02)" style="fill:#2d3132"/><path d="M8,23.71c.12,0,.1.09.1.16v2c0,.18-.07.18-.19.14L4.46,25c-.8-.23-1.61-.41-2.38-.69A2.93,2.93,0,0,1,.05,22h0V20.67a4.72,4.72,0,0,1,.45-1,3.11,3.11,0,0,1,1.8-1.25c.89-.25,1.77-.54,2.66-.81l3-.95v2.18l-2,.61-3.12.92a1,1,0,0,0,0,1.92l4.2,1.21A3.72,3.72,0,0,0,8,23.71Z" transform="translate(-0.05 0.02)" style="fill:#2d3132"/><path d="M11.44,5.85v4.21a1.27,1.27,0,0,1-.19.76,1,1,0,0,1-.94.34.85.85,0,0,1-.7-.71,3.21,3.21,0,0,1,0-.62V1.6a.94.94,0,0,1,.63-1,.91.91,0,0,1,1.16.55.74.74,0,0,1,0,.14,19.05,19.05,0,0,1,0,2C11.45,4.1,11.44,5,11.44,5.85Z" transform="translate(-0.05 0.02)" style="fill:#2d3132"/><path d="M14.89,5.86v4.42a.82.82,0,0,1-.76.88h0a.87.87,0,0,1-1-.68,1.27,1.27,0,0,1,0-.39V1.55a.93.93,0,0,1,.89-1,.89.89,0,0,1,.48.11.72.72,0,0,1,.39.7C14.9,2.88,14.89,4.37,14.89,5.86Z" transform="translate(-0.05 0.02)" style="fill:#2d3132"/><path d="M8,23.71a3.47,3.47,0,0,1-.9-.21L2.87,22.29a1,1,0,0,1,0-1.92L6,19.45l2-.61Z" transform="translate(-0.05 0.02)" style="fill:#d61516"/><path d="M20.19,7.92a3.46,3.46,0,0,1,.49.65c.79,1.12,1.55,2.27,2.36,3.37a2.75,2.75,0,0,0,1.72,1,4.18,4.18,0,0,0,2.29-.3c2.16-.79,4.34-1.54,6.52-2.31,1-.34,2-.71,2.93-1.05a1,1,0,0,1,1.29.58,1,1,0,0,1,.06.42.89.89,0,0,1-.2.56l-2.48,3.25c-.79,1.05-1.59,2.1-2.38,3.17-.57.77-1.19,1.51-1.72,2.31a2.83,2.83,0,0,0-.42,1.2,3.52,3.52,0,0,0,1,2.84c.84,1.05,1.64,2.14,2.46,3.2,1,1.35,2.08,2.69,3.1,4a3.44,3.44,0,0,1,.69,1,.91.91,0,0,1-.24,1,.78.78,0,0,1-.88.27c-1-.3-1.9-.65-2.85-1l-5.14-1.79a25.64,25.64,0,0,0-2.56-.86,3.16,3.16,0,0,0-2.19.36,5,5,0,0,0-1.57,1.73l-3.54,5.2-1.12,1.61h-.27c-.54,0-.69-.25-.84-.7a2.35,2.35,0,0,1-.05-.65c-.1-2.87,0-5.73-.06-8.6-.08-3.81,0-7.63,0-11.45A2.46,2.46,0,0,1,17,15.69a.69.69,0,0,1,.35-.28,5.24,5.24,0,0,0,2.63-3.55A10,10,0,0,0,20.21,10,20,20,0,0,1,20.19,7.92Z" transform="translate(-0.05 0.02)" style="fill:#d61516"/></svg>